<svg version="1.2" xmlns="http://www.w3.org/2000/svg" viewBox="0 0 1000 1000" width="1000" height="1000">
	<title>DendriticLearningIcon-01-svg</title>
	<style>
		.s0 { fill: #519872;stroke: #519872;stroke-miterlimit:100;stroke-width: 5 } 
		.s1 { fill: none;stroke: #519872;stroke-miterlimit:10;stroke-width: 15 } 
	</style>
	<path class="s0" d="m469.6 700.4c-12.9 0-23.4-10.4-23.4-23.3 0-13 10.5-23.4 23.4-23.4 12.9 0 23.4 10.4 23.4 23.4 0 12.9-10.5 23.3-23.4 23.3z"/>
	<path class="s0" d="m290.8 679.4c-12.9 0-23.4-10.5-23.4-23.4 0-12.9 10.5-23.4 23.4-23.4 12.9 0 23.4 10.5 23.4 23.4 0 12.9-10.5 23.4-23.4 23.4z"/>
	<path class="s0" d="m234.7 580c-12.9 0-23.4-10.4-23.4-23.3 0-12.9 10.5-23.4 23.4-23.4 12.9 0 23.4 10.5 23.4 23.4 0 12.9-10.5 23.3-23.4 23.3z"/>
	<path class="s0" d="m79.3 452.7c-13 0-23.4-10.5-23.4-23.4 0-12.9 10.4-23.4 23.4-23.4 12.9 0 23.3 10.5 23.3 23.4 0 12.9-10.4 23.4-23.3 23.4z"/>
	<path class="s0" d="m234.7 223.6c-12.9 0-23.4-10.5-23.4-23.4 0-12.9 10.5-23.4 23.4-23.4 12.9 0 23.4 10.5 23.4 23.4 0 12.9-10.5 23.4-23.4 23.4z"/>
	<path class="s0" d="m569 167.5c-13 0-23.4-10.5-23.4-23.4 0-12.9 10.4-23.4 23.4-23.4 12.9 0 23.3 10.5 23.3 23.4 0 12.9-10.4 23.4-23.3 23.4z"/>
	<path class="s0" d="m815.5 303.1c-12.9 0-23.3-10.5-23.3-23.4 0-12.9 10.4-23.4 23.3-23.4 13 0 23.4 10.5 23.4 23.4 0 12.9-10.4 23.4-23.4 23.4z"/>
	<path class="s0" d="m815.5 702.8c-12.9 0-23.3-10.5-23.3-23.4 0-12.9 10.4-23.4 23.3-23.4 13 0 23.4 10.5 23.4 23.4 0 12.9-10.4 23.4-23.4 23.4z"/>
	<path class="s0" d="m920.7 469c-12.9 0-23.3-10.4-23.3-23.4 0-12.9 10.4-23.3 23.3-23.3 13 0 23.4 10.4 23.4 23.3 0 13-10.4 23.4-23.4 23.4z"/>
	<path class="s0" d="m607.5 785.8c-12.9 0-23.4-10.5-23.4-23.4 0-12.9 10.5-23.4 23.4-23.4 12.9 0 23.4 10.5 23.4 23.4 0 12.9-10.5 23.4-23.4 23.4z"/>
	<path class="s0" d="m609.9 339.3c-13 0-23.4-10.4-23.4-23.4 0-12.9 10.4-23.3 23.4-23.3 12.9 0 23.3 10.4 23.3 23.3 0 13-10.4 23.4-23.3 23.4z"/>
	<path class="s0" d="m733.7 480.7c-12.9 0-23.3-10.4-23.3-23.4 0-12.9 10.4-23.3 23.3-23.3 13 0 23.4 10.4 23.4 23.3 0 13-10.4 23.4-23.4 23.4z"/>
	<path class="s0" d="m674.1 688.7c-12.9 0-23.3-10.4-23.3-23.3 0-13 10.4-23.4 23.3-23.4 13 0 23.4 10.4 23.4 23.4 0 12.9-10.4 23.3-23.4 23.3z"/>
	<path class="s0" d="m413.5 559c-12.9 0-23.4-10.4-23.4-23.4 0-12.9 10.5-23.3 23.4-23.3 12.9 0 23.4 10.4 23.4 23.3 0 13-10.5 23.4-23.4 23.4z"/>
	<path class="s0" d="m346.9 338.1c-12.9 0-23.4-10.4-23.4-23.3 0-13 10.5-23.4 23.4-23.4 12.9 0 23.4 10.4 23.4 23.4 0 12.9-10.5 23.3-23.4 23.3z"/>
	<path class="s0" d="m601.7 879.3c-12.9 0-23.4-10.5-23.4-23.4 0-12.9 10.5-23.4 23.4-23.4 12.9 0 23.3 10.5 23.3 23.4 0 12.9-10.4 23.4-23.3 23.4z"/>
	<path class="s0" d="m734.9 816.1c-12.9 0-23.4-10.4-23.4-23.3 0-13 10.5-23.4 23.4-23.4 12.9 0 23.4 10.4 23.4 23.4 0 12.9-10.5 23.3-23.4 23.3z"/>
	<path class="s0" d="m918.4 656c-12.9 0-23.4-10.4-23.4-23.4 0-12.9 10.5-23.3 23.4-23.3 12.9 0 23.4 10.4 23.4 23.3 0 13-10.5 23.4-23.4 23.4z"/>
	<path class="s0" d="m713.9 206.1c-12.9 0-23.4-10.5-23.4-23.4 0-12.9 10.5-23.4 23.4-23.4 12.9 0 23.4 10.5 23.4 23.4 0 12.9-10.5 23.4-23.4 23.4z"/>
	<path class="s0" d="m391.3 167.5c-12.9 0-23.4-10.5-23.4-23.4 0-12.9 10.5-23.4 23.4-23.4 12.9 0 23.4 10.5 23.4 23.4 0 12.9-10.5 23.4-23.4 23.4z"/>
	<path class="s0" d="m109.7 303.1c-13 0-23.4-10.5-23.4-23.4 0-12.9 10.4-23.4 23.4-23.4 12.9 0 23.3 10.5 23.3 23.4 0 12.9-10.4 23.4-23.3 23.4z"/>
	<path class="s0" d="m130.7 535.6c-12.9 0-23.4-10.4-23.4-23.3 0-13 10.5-23.4 23.4-23.4 12.9 0 23.4 10.4 23.4 23.4 0 12.9-10.5 23.3-23.4 23.3z"/>
	<path class="s0" d="m579.5 575.4c-13 0-23.4-10.5-23.4-23.4 0-12.9 10.4-23.4 23.4-23.4 12.9 0 23.3 10.5 23.3 23.4 0 12.9-10.4 23.4-23.3 23.4z"/>
	<path class="s0" d="m498.8 439.8c-12.9 0-23.3-10.4-23.3-23.4 0-12.9 10.4-23.3 23.3-23.3 13 0 23.4 10.4 23.4 23.3 0 13-10.4 23.4-23.4 23.4z"/>
	<path class="s0" d="m245.2 429.3c-12.9 0-23.4-10.5-23.4-23.4 0-12.9 10.5-23.4 23.4-23.4 12.9 0 23.4 10.5 23.4 23.4 0 12.9-10.5 23.4-23.4 23.4z"/>
	<path class="s1" d="m234.7 200.2l-125 79.5-30.4 149.6 51.4 83 104 44.4 56.1 99.3 178.8 21.1 132.1 178.8 5.8-93.5 127.4 30.4 80.6-113.4 102.9-46.8 2.3-187-105.2-165.9-101.6-97-144.9-38.6h-177.7l-156.6 56.1z"/>
	<path class="s1" d="m346.1 308.9l45.2-164.8 218.6 171.8-40.9-171.8"/>
	<path class="s1" d="m920.7 445.6l-187 11.7 81.8-177.6-205.6 36.2 104-133.2"/>
	<path class="s1" d="m918.4 632.6l-184.7-175.3 81.8 222.1-141.4-14 60.8 127.4"/>
	<path class="s1" d="m607.5 762.4l66.6-97-204.5 11.7 137.9 85.3z"/>
	<path class="s1" d="m674.1 665.4l59.6-208.1-154.2 94.7 94.6 113.4z"/>
	<path class="s1" d="m498.8 416.4l111.1-100.5 123.8 141.4-234.9-40.9z"/>
	<path class="s1" d="m579.5 552l-80.7-135.6-85.3 119.2 166 16.4-109.9 125.1-56.1-141.5-122.7 120.4"/>
	<path class="s1" d="m234.7 556.7l178.8-21.1-168.3-129.7-10.5 150.8z"/>
	<path class="s1" d="m130.7 512.3l114.5-106.4-165.9 23.4"/>
	<path class="s1" d="m109.7 279.7l135.5 126.2-10.5-205.7 112.2 114.6 263 1.1"/>
	<path class="s1" d="m346.9 314.8l151.9 101.6-253.6-10.5 101.7-91.1z"/>
</svg>