<svg version="1.2" xmlns="http://www.w3.org/2000/svg" viewBox="0 0 3000 2000" width="3000" height="2000">
	<title>dendriticbackground</title>
	<style>
		.s0 { fill: #519872 } 
	</style>
	<path id="Shape 39" class="s0" d="m2444.2 1972.4l2.6-4.3 276.6 166-2.5 4.3z"/>
	<path id="Shape 1" class="s0" d="m931.3 1211.7l1.9-4.6 468.4 198.4-2 4.6z"/>
	<path id="Shape 2" class="s0" d="m1697.8 890.8l3.6-3.5 243.5 249.5-3.5 3.5z"/>
	<path id="Shape 3" class="s0" d="m1761.7 1453.2l-4.3-2.5 185.6-315.4 4.3 2.5z"/>
	<path id="Shape 4" class="s0" d="m1754.7 1456.3l1.7-4.7 243.5 89.8-1.7 4.7z"/>
	<path id="Shape 5" class="s0" d="m1811.9 1814.8l-5 0.8-53.9-357.3 5-0.8z"/>
	<path id="Shape 6" class="s0" d="m1817.5 1812.6l-4.2-2.8 179.7-267.5 4.1 2.8z"/>
	<path id="Shape 7" class="s0" d="m1701.9 888.5l-0.5-4.9 455.1-42 0.5 5z"/>
	<path id="Shape 8" class="s0" d="m1947.2 1141l-4.1-2.9 207.6-299.4 4.1 2.9z"/>
	<path id="Shape 10" class="s0" d="m2214.8 1167.7l-2.4-4.4 249.5-139.7 2.4 4.3z"/>
	<path id="Shape 11" class="s0" d="m2223.1 1172l4.9-1.1 49.9 227.6-4.9 1.1z"/>
	<path id="Shape 12" class="s0" d="m2281.7 1398.1l-4.5-2.2 177.7-371.2 4.5 2.1z"/>
	<path id="Shape 13" class="s0" d="m2278.5 1403.3l-2.1-4.5 263.5-121.8 2.1 4.5z"/>
	<path id="Shape 14" class="s0" d="m2543.3 1278.5l-4.7 1.6-83.8-251.5 4.7-1.6z"/>
	<path id="Shape 15" class="s0" d="m2458.8 1035.2l0.6-4.9 327.4 39.9-0.6 5z"/>
	<path id="Shape 16" class="s0" d="m2784.9 1070.8l3.2 3.8-249.5 211.6-3.3-3.9z"/>
	<path id="Shape 17" class="s0" d="m2536.1 1286.6l1.7-4.7 335.3 117.8-1.6 4.7z"/>
	<path id="Shape 18" class="s0" d="m2774.1 1071.4l4.8-1.5 103.8 329.4-4.8 1.5z"/>
	<path id="Shape 19" class="s0" d="m2774.8 1075.6l-4.6-1.9 83.8-201.6 4.6 1.9z"/>
	<path id="Shape 20" class="s0" d="m2532.7 1278.3l4.6-2 205.6 473-4.6 2z"/>
	<path id="Shape 21" class="s0" d="m2742.9 1751.2l-4.7-1.8 135.8-347.3 4.6 1.8z"/>
	<path id="Shape 22" class="s0" d="m2295.6 1729.6l-4.3-2.4 247.5-451.1 4.4 2.4z"/>
	<path id="Shape 23" class="s0" d="m2295.3 1728.9l0.3-5 443.1 19.9-0.2 5z"/>
	<path id="Shape 24" class="s0" d="m2307.3 1745.6l4.3-2.5 139.7 239.5-4.3 2.5z"/>
	<path id="Shape 25" class="s0" d="m2450.7 1985.8l-3.1-3.9 303.4-237.5 3.1 3.9z"/>
	<path id="Shape 26" class="s0" d="m2017.3 649.8l-1.6-4.7 473.1-161.7 1.6 4.7z"/>
	<path id="Layer 1 copy 2" class="s0" d="m2208.5 1191c-15.8 0-28.5-12.7-28.5-28.5 0-15.8 12.7-28.5 28.5-28.5 15.8 0 28.5 12.7 28.5 28.5 0 15.8-12.7 28.5-28.5 28.5zm0 0c-15.8 0-28.5-12.7-28.5-28.5 0-15.8 12.7-28.5 28.5-28.5 15.8 0 28.5 12.7 28.5 28.5 0 15.8-12.7 28.5-28.5 28.5zm0 0c-15.8 0-28.5-12.7-28.5-28.5 0-15.8 12.7-28.5 28.5-28.5 15.8 0 28.5 12.7 28.5 28.5 0 15.8-12.7 28.5-28.5 28.5zm0 0c-15.8 0-28.5-12.7-28.5-28.5 0-15.8 12.7-28.5 28.5-28.5 15.8 0 28.5 12.7 28.5 28.5 0 15.8-12.7 28.5-28.5 28.5z"/>
	<path id="Layer 1 copy 4" class="s0" d="m2456.5 1057c-15.8 0-28.5-12.7-28.5-28.5 0-15.8 12.7-28.5 28.5-28.5 15.8 0 28.5 12.7 28.5 28.5 0 15.8-12.7 28.5-28.5 28.5zm0 0c-15.8 0-28.5-12.7-28.5-28.5 0-15.8 12.7-28.5 28.5-28.5 15.8 0 28.5 12.7 28.5 28.5 0 15.8-12.7 28.5-28.5 28.5zm0 0c-15.8 0-28.5-12.7-28.5-28.5 0-15.8 12.7-28.5 28.5-28.5 15.8 0 28.5 12.7 28.5 28.5 0 15.8-12.7 28.5-28.5 28.5zm0 0c-15.8 0-28.5-12.7-28.5-28.5 0-15.8 12.7-28.5 28.5-28.5 15.8 0 28.5 12.7 28.5 28.5 0 15.8-12.7 28.5-28.5 28.5z"/>
	<path id="Layer 1 copy 5" class="s0" d="m2152.5 869c-15.8 0-28.5-12.7-28.5-28.5 0-15.8 12.7-28.5 28.5-28.5 15.8 0 28.5 12.7 28.5 28.5 0 15.8-12.7 28.5-28.5 28.5zm0 0c-15.8 0-28.5-12.7-28.5-28.5 0-15.8 12.7-28.5 28.5-28.5 15.8 0 28.5 12.7 28.5 28.5 0 15.8-12.7 28.5-28.5 28.5zm0 0c-15.8 0-28.5-12.7-28.5-28.5 0-15.8 12.7-28.5 28.5-28.5 15.8 0 28.5 12.7 28.5 28.5 0 15.8-12.7 28.5-28.5 28.5zm0 0c-15.8 0-28.5-12.7-28.5-28.5 0-15.8 12.7-28.5 28.5-28.5 15.8 0 28.5 12.7 28.5 28.5 0 15.8-12.7 28.5-28.5 28.5z"/>
	<path id="Layer 1 copy 6" class="s0" d="m1696.5 917c-15.8 0-28.5-12.7-28.5-28.5 0-15.8 12.7-28.5 28.5-28.5 15.8 0 28.5 12.7 28.5 28.5 0 15.8-12.7 28.5-28.5 28.5zm0 0c-15.8 0-28.5-12.7-28.5-28.5 0-15.8 12.7-28.5 28.5-28.5 15.8 0 28.5 12.7 28.5 28.5 0 15.8-12.7 28.5-28.5 28.5zm0 0c-15.8 0-28.5-12.7-28.5-28.5 0-15.8 12.7-28.5 28.5-28.5 15.8 0 28.5 12.7 28.5 28.5 0 15.8-12.7 28.5-28.5 28.5zm0 0c-15.8 0-28.5-12.7-28.5-28.5 0-15.8 12.7-28.5 28.5-28.5 15.8 0 28.5 12.7 28.5 28.5 0 15.8-12.7 28.5-28.5 28.5z"/>
	<path id="Layer 1 copy 7" class="s0" d="m2016.5 673c-15.8 0-28.5-12.7-28.5-28.5 0-15.8 12.7-28.5 28.5-28.5 15.8 0 28.5 12.7 28.5 28.5 0 15.8-12.7 28.5-28.5 28.5zm0 0c-15.8 0-28.5-12.7-28.5-28.5 0-15.8 12.7-28.5 28.5-28.5 15.8 0 28.5 12.7 28.5 28.5 0 15.8-12.7 28.5-28.5 28.5zm0 0c-15.8 0-28.5-12.7-28.5-28.5 0-15.8 12.7-28.5 28.5-28.5 15.8 0 28.5 12.7 28.5 28.5 0 15.8-12.7 28.5-28.5 28.5zm0 0c-15.8 0-28.5-12.7-28.5-28.5 0-15.8 12.7-28.5 28.5-28.5 15.8 0 28.5 12.7 28.5 28.5 0 15.8-12.7 28.5-28.5 28.5z"/>
	<path id="Layer 1 copy 8" class="s0" d="m1940.5 1165c-15.8 0-28.5-12.7-28.5-28.5 0-15.8 12.7-28.5 28.5-28.5 15.8 0 28.5 12.7 28.5 28.5 0 15.8-12.7 28.5-28.5 28.5zm0 0c-15.8 0-28.5-12.7-28.5-28.5 0-15.8 12.7-28.5 28.5-28.5 15.8 0 28.5 12.7 28.5 28.5 0 15.8-12.7 28.5-28.5 28.5zm0 0c-15.8 0-28.5-12.7-28.5-28.5 0-15.8 12.7-28.5 28.5-28.5 15.8 0 28.5 12.7 28.5 28.5 0 15.8-12.7 28.5-28.5 28.5zm0 0c-15.8 0-28.5-12.7-28.5-28.5 0-15.8 12.7-28.5 28.5-28.5 15.8 0 28.5 12.7 28.5 28.5 0 15.8-12.7 28.5-28.5 28.5z"/>
	<path id="Layer 1 copy 9" class="s0" d="m1756.5 1477c-15.8 0-28.5-12.7-28.5-28.5 0-15.8 12.7-28.5 28.5-28.5 15.8 0 28.5 12.7 28.5 28.5 0 15.8-12.7 28.5-28.5 28.5zm0 0c-15.8 0-28.5-12.7-28.5-28.5 0-15.8 12.7-28.5 28.5-28.5 15.8 0 28.5 12.7 28.5 28.5 0 15.8-12.7 28.5-28.5 28.5zm0 0c-15.8 0-28.5-12.7-28.5-28.5 0-15.8 12.7-28.5 28.5-28.5 15.8 0 28.5 12.7 28.5 28.5 0 15.8-12.7 28.5-28.5 28.5zm0 0c-15.8 0-28.5-12.7-28.5-28.5 0-15.8 12.7-28.5 28.5-28.5 15.8 0 28.5 12.7 28.5 28.5 0 15.8-12.7 28.5-28.5 28.5z"/>
	<path id="Layer 1 copy 11" class="s0" d="m1396.5 1433c-15.8 0-28.5-12.7-28.5-28.5 0-15.8 12.7-28.5 28.5-28.5 15.8 0 28.5 12.7 28.5 28.5 0 15.8-12.7 28.5-28.5 28.5zm0 0c-15.8 0-28.5-12.7-28.5-28.5 0-15.8 12.7-28.5 28.5-28.5 15.8 0 28.5 12.7 28.5 28.5 0 15.8-12.7 28.5-28.5 28.5zm0 0c-15.8 0-28.5-12.7-28.5-28.5 0-15.8 12.7-28.5 28.5-28.5 15.8 0 28.5 12.7 28.5 28.5 0 15.8-12.7 28.5-28.5 28.5zm0 0c-15.8 0-28.5-12.7-28.5-28.5 0-15.8 12.7-28.5 28.5-28.5 15.8 0 28.5 12.7 28.5 28.5 0 15.8-12.7 28.5-28.5 28.5z"/>
	<path id="Layer 1 copy 12" class="s0" d="m2484.5 513c-15.8 0-28.5-12.7-28.5-28.5 0-15.8 12.7-28.5 28.5-28.5 15.8 0 28.5 12.7 28.5 28.5 0 15.8-12.7 28.5-28.5 28.5zm0 0c-15.8 0-28.5-12.7-28.5-28.5 0-15.8 12.7-28.5 28.5-28.5 15.8 0 28.5 12.7 28.5 28.5 0 15.8-12.7 28.5-28.5 28.5zm0 0c-15.8 0-28.5-12.7-28.5-28.5 0-15.8 12.7-28.5 28.5-28.5 15.8 0 28.5 12.7 28.5 28.5 0 15.8-12.7 28.5-28.5 28.5zm0 0c-15.8 0-28.5-12.7-28.5-28.5 0-15.8 12.7-28.5 28.5-28.5 15.8 0 28.5 12.7 28.5 28.5 0 15.8-12.7 28.5-28.5 28.5z"/>
	<path id="Layer 1 copy 13" class="s0" d="m932.5 1237c-15.8 0-28.5-12.7-28.5-28.5 0-15.8 12.7-28.5 28.5-28.5 15.8 0 28.5 12.7 28.5 28.5 0 15.8-12.7 28.5-28.5 28.5zm0 0c-15.8 0-28.5-12.7-28.5-28.5 0-15.8 12.7-28.5 28.5-28.5 15.8 0 28.5 12.7 28.5 28.5 0 15.8-12.7 28.5-28.5 28.5zm0 0c-15.8 0-28.5-12.7-28.5-28.5 0-15.8 12.7-28.5 28.5-28.5 15.8 0 28.5 12.7 28.5 28.5 0 15.8-12.7 28.5-28.5 28.5zm0 0c-15.8 0-28.5-12.7-28.5-28.5 0-15.8 12.7-28.5 28.5-28.5 15.8 0 28.5 12.7 28.5 28.5 0 15.8-12.7 28.5-28.5 28.5z"/>
	<path id="Layer 1 copy 25" class="s0" d="m1104.5 1461c-15.8 0-28.5-12.7-28.5-28.5 0-15.8 12.7-28.5 28.5-28.5 15.8 0 28.5 12.7 28.5 28.5 0 15.8-12.7 28.5-28.5 28.5zm0 0c-15.8 0-28.5-12.7-28.5-28.5 0-15.8 12.7-28.5 28.5-28.5 15.8 0 28.5 12.7 28.5 28.5 0 15.8-12.7 28.5-28.5 28.5zm0 0c-15.8 0-28.5-12.7-28.5-28.5 0-15.8 12.7-28.5 28.5-28.5 15.8 0 28.5 12.7 28.5 28.5 0 15.8-12.7 28.5-28.5 28.5zm0 0c-15.8 0-28.5-12.7-28.5-28.5 0-15.8 12.7-28.5 28.5-28.5 15.8 0 28.5 12.7 28.5 28.5 0 15.8-12.7 28.5-28.5 28.5z"/>
	<path id="Layer 1 copy 28" class="s0" d="m1309.5 1860c-15.8 0-28.5-12.7-28.5-28.5 0-15.8 12.7-28.5 28.5-28.5 15.8 0 28.5 12.7 28.5 28.5 0 15.8-12.7 28.5-28.5 28.5zm0 0c-15.8 0-28.5-12.7-28.5-28.5 0-15.8 12.7-28.5 28.5-28.5 15.8 0 28.5 12.7 28.5 28.5 0 15.8-12.7 28.5-28.5 28.5zm0 0c-15.8 0-28.5-12.7-28.5-28.5 0-15.8 12.7-28.5 28.5-28.5 15.8 0 28.5 12.7 28.5 28.5 0 15.8-12.7 28.5-28.5 28.5zm0 0c-15.8 0-28.5-12.7-28.5-28.5 0-15.8 12.7-28.5 28.5-28.5 15.8 0 28.5 12.7 28.5 28.5 0 15.8-12.7 28.5-28.5 28.5z"/>
	<path id="Shape 40" class="s0" d="m1311.1 1833.5l3.8 3.4-229.8 257.1-3.7-3.3z"/>
	<path id="Shape 41" class="s0" d="m1311.1 1834.1l3.8-3.3 311.8 358.4-3.7 3.2z"/>
	<path id="Layer 1 copy 14" class="s0" d="m1517.5 1771c-15.8 0-28.5-12.7-28.5-28.5 0-15.8 12.7-28.5 28.5-28.5 15.8 0 28.5 12.7 28.5 28.5 0 15.8-12.7 28.5-28.5 28.5zm0 0c-15.8 0-28.5-12.7-28.5-28.5 0-15.8 12.7-28.5 28.5-28.5 15.8 0 28.5 12.7 28.5 28.5 0 15.8-12.7 28.5-28.5 28.5zm0 0c-15.8 0-28.5-12.7-28.5-28.5 0-15.8 12.7-28.5 28.5-28.5 15.8 0 28.5 12.7 28.5 28.5 0 15.8-12.7 28.5-28.5 28.5zm0 0c-15.8 0-28.5-12.7-28.5-28.5 0-15.8 12.7-28.5 28.5-28.5 15.8 0 28.5 12.7 28.5 28.5 0 15.8-12.7 28.5-28.5 28.5z"/>
	<path id="Shape 42" class="s0" d="m1518.9 1745.1l1.1-4.8 290.6 67.2-1.1 4.8z"/>
	<path id="Layer 1 copy 15" class="s0" d="m2851.5 901c-15.8 0-28.5-12.7-28.5-28.5 0-15.8 12.7-28.5 28.5-28.5 15.8 0 28.5 12.7 28.5 28.5 0 15.8-12.7 28.5-28.5 28.5zm0 0c-15.8 0-28.5-12.7-28.5-28.5 0-15.8 12.7-28.5 28.5-28.5 15.8 0 28.5 12.7 28.5 28.5 0 15.8-12.7 28.5-28.5 28.5zm0 0c-15.8 0-28.5-12.7-28.5-28.5 0-15.8 12.7-28.5 28.5-28.5 15.8 0 28.5 12.7 28.5 28.5 0 15.8-12.7 28.5-28.5 28.5zm0 0c-15.8 0-28.5-12.7-28.5-28.5 0-15.8 12.7-28.5 28.5-28.5 15.8 0 28.5 12.7 28.5 28.5 0 15.8-12.7 28.5-28.5 28.5z"/>
	<path id="Layer 1 copy 16" class="s0" d="m2771.5 1097c-15.8 0-28.5-12.7-28.5-28.5 0-15.8 12.7-28.5 28.5-28.5 15.8 0 28.5 12.7 28.5 28.5 0 15.8-12.7 28.5-28.5 28.5zm0 0c-15.8 0-28.5-12.7-28.5-28.5 0-15.8 12.7-28.5 28.5-28.5 15.8 0 28.5 12.7 28.5 28.5 0 15.8-12.7 28.5-28.5 28.5zm0 0c-15.8 0-28.5-12.7-28.5-28.5 0-15.8 12.7-28.5 28.5-28.5 15.8 0 28.5 12.7 28.5 28.5 0 15.8-12.7 28.5-28.5 28.5zm0 0c-15.8 0-28.5-12.7-28.5-28.5 0-15.8 12.7-28.5 28.5-28.5 15.8 0 28.5 12.7 28.5 28.5 0 15.8-12.7 28.5-28.5 28.5z"/>
	<path id="Layer 1 copy 17" class="s0" d="m2539.5 1305c-15.8 0-28.5-12.7-28.5-28.5 0-15.8 12.7-28.5 28.5-28.5 15.8 0 28.5 12.7 28.5 28.5 0 15.8-12.7 28.5-28.5 28.5zm0 0c-15.8 0-28.5-12.7-28.5-28.5 0-15.8 12.7-28.5 28.5-28.5 15.8 0 28.5 12.7 28.5 28.5 0 15.8-12.7 28.5-28.5 28.5zm0 0c-15.8 0-28.5-12.7-28.5-28.5 0-15.8 12.7-28.5 28.5-28.5 15.8 0 28.5 12.7 28.5 28.5 0 15.8-12.7 28.5-28.5 28.5zm0 0c-15.8 0-28.5-12.7-28.5-28.5 0-15.8 12.7-28.5 28.5-28.5 15.8 0 28.5 12.7 28.5 28.5 0 15.8-12.7 28.5-28.5 28.5z"/>
	<path id="Layer 1 copy 18" class="s0" d="m2271.5 1421c-15.8 0-28.5-12.7-28.5-28.5 0-15.8 12.7-28.5 28.5-28.5 15.8 0 28.5 12.7 28.5 28.5 0 15.8-12.7 28.5-28.5 28.5zm0 0c-15.8 0-28.5-12.7-28.5-28.5 0-15.8 12.7-28.5 28.5-28.5 15.8 0 28.5 12.7 28.5 28.5 0 15.8-12.7 28.5-28.5 28.5zm0 0c-15.8 0-28.5-12.7-28.5-28.5 0-15.8 12.7-28.5 28.5-28.5 15.8 0 28.5 12.7 28.5 28.5 0 15.8-12.7 28.5-28.5 28.5zm0 0c-15.8 0-28.5-12.7-28.5-28.5 0-15.8 12.7-28.5 28.5-28.5 15.8 0 28.5 12.7 28.5 28.5 0 15.8-12.7 28.5-28.5 28.5z"/>
	<path id="Layer 1 copy 19" class="s0" d="m1995.5 1569c-15.8 0-28.5-12.7-28.5-28.5 0-15.8 12.7-28.5 28.5-28.5 15.8 0 28.5 12.7 28.5 28.5 0 15.8-12.7 28.5-28.5 28.5zm0 0c-15.8 0-28.5-12.7-28.5-28.5 0-15.8 12.7-28.5 28.5-28.5 15.8 0 28.5 12.7 28.5 28.5 0 15.8-12.7 28.5-28.5 28.5zm0 0c-15.8 0-28.5-12.7-28.5-28.5 0-15.8 12.7-28.5 28.5-28.5 15.8 0 28.5 12.7 28.5 28.5 0 15.8-12.7 28.5-28.5 28.5zm0 0c-15.8 0-28.5-12.7-28.5-28.5 0-15.8 12.7-28.5 28.5-28.5 15.8 0 28.5 12.7 28.5 28.5 0 15.8-12.7 28.5-28.5 28.5z"/>
	<path id="Layer 1 copy 20" class="s0" d="m1807.5 1837c-15.8 0-28.5-12.7-28.5-28.5 0-15.8 12.7-28.5 28.5-28.5 15.8 0 28.5 12.7 28.5 28.5 0 15.8-12.7 28.5-28.5 28.5zm0 0c-15.8 0-28.5-12.7-28.5-28.5 0-15.8 12.7-28.5 28.5-28.5 15.8 0 28.5 12.7 28.5 28.5 0 15.8-12.7 28.5-28.5 28.5zm0 0c-15.8 0-28.5-12.7-28.5-28.5 0-15.8 12.7-28.5 28.5-28.5 15.8 0 28.5 12.7 28.5 28.5 0 15.8-12.7 28.5-28.5 28.5zm0 0c-15.8 0-28.5-12.7-28.5-28.5 0-15.8 12.7-28.5 28.5-28.5 15.8 0 28.5 12.7 28.5 28.5 0 15.8-12.7 28.5-28.5 28.5z"/>
	<path id="Layer 1 copy 26" class="s0" d="m2096.5 1981c-15.8 0-28.5-12.7-28.5-28.5 0-15.8 12.7-28.5 28.5-28.5 15.8 0 28.5 12.7 28.5 28.5 0 15.8-12.7 28.5-28.5 28.5zm0 0c-15.8 0-28.5-12.7-28.5-28.5 0-15.8 12.7-28.5 28.5-28.5 15.8 0 28.5 12.7 28.5 28.5 0 15.8-12.7 28.5-28.5 28.5zm0 0c-15.8 0-28.5-12.7-28.5-28.5 0-15.8 12.7-28.5 28.5-28.5 15.8 0 28.5 12.7 28.5 28.5 0 15.8-12.7 28.5-28.5 28.5zm0 0c-15.8 0-28.5-12.7-28.5-28.5 0-15.8 12.7-28.5 28.5-28.5 15.8 0 28.5 12.7 28.5 28.5 0 15.8-12.7 28.5-28.5 28.5z"/>
	<path id="Layer 1 copy 21" class="s0" d="m2299.5 1753c-15.8 0-28.5-12.7-28.5-28.5 0-15.8 12.7-28.5 28.5-28.5 15.8 0 28.5 12.7 28.5 28.5 0 15.8-12.7 28.5-28.5 28.5zm0 0c-15.8 0-28.5-12.7-28.5-28.5 0-15.8 12.7-28.5 28.5-28.5 15.8 0 28.5 12.7 28.5 28.5 0 15.8-12.7 28.5-28.5 28.5zm0 0c-15.8 0-28.5-12.7-28.5-28.5 0-15.8 12.7-28.5 28.5-28.5 15.8 0 28.5 12.7 28.5 28.5 0 15.8-12.7 28.5-28.5 28.5zm0 0c-15.8 0-28.5-12.7-28.5-28.5 0-15.8 12.7-28.5 28.5-28.5 15.8 0 28.5 12.7 28.5 28.5 0 15.8-12.7 28.5-28.5 28.5z"/>
	<path id="Layer 1 copy 22" class="s0" d="m2875.5 1425c-15.8 0-28.5-12.7-28.5-28.5 0-15.8 12.7-28.5 28.5-28.5 15.8 0 28.5 12.7 28.5 28.5 0 15.8-12.7 28.5-28.5 28.5zm0 0c-15.8 0-28.5-12.7-28.5-28.5 0-15.8 12.7-28.5 28.5-28.5 15.8 0 28.5 12.7 28.5 28.5 0 15.8-12.7 28.5-28.5 28.5zm0 0c-15.8 0-28.5-12.7-28.5-28.5 0-15.8 12.7-28.5 28.5-28.5 15.8 0 28.5 12.7 28.5 28.5 0 15.8-12.7 28.5-28.5 28.5zm0 0c-15.8 0-28.5-12.7-28.5-28.5 0-15.8 12.7-28.5 28.5-28.5 15.8 0 28.5 12.7 28.5 28.5 0 15.8-12.7 28.5-28.5 28.5z"/>
	<path id="Layer 1 copy 23" class="s0" d="m2739.5 1773c-15.8 0-28.5-12.7-28.5-28.5 0-15.8 12.7-28.5 28.5-28.5 15.8 0 28.5 12.7 28.5 28.5 0 15.8-12.7 28.5-28.5 28.5zm0 0c-15.8 0-28.5-12.7-28.5-28.5 0-15.8 12.7-28.5 28.5-28.5 15.8 0 28.5 12.7 28.5 28.5 0 15.8-12.7 28.5-28.5 28.5zm0 0c-15.8 0-28.5-12.7-28.5-28.5 0-15.8 12.7-28.5 28.5-28.5 15.8 0 28.5 12.7 28.5 28.5 0 15.8-12.7 28.5-28.5 28.5zm0 0c-15.8 0-28.5-12.7-28.5-28.5 0-15.8 12.7-28.5 28.5-28.5 15.8 0 28.5 12.7 28.5 28.5 0 15.8-12.7 28.5-28.5 28.5z"/>
	<path id="Layer 1 copy 27" class="s0" d="m2999.5 1632c-15.8 0-28.5-12.7-28.5-28.5 0-15.8 12.7-28.5 28.5-28.5 15.8 0 28.5 12.7 28.5 28.5 0 15.8-12.7 28.5-28.5 28.5zm0 0c-15.8 0-28.5-12.7-28.5-28.5 0-15.8 12.7-28.5 28.5-28.5 15.8 0 28.5 12.7 28.5 28.5 0 15.8-12.7 28.5-28.5 28.5zm0 0c-15.8 0-28.5-12.7-28.5-28.5 0-15.8 12.7-28.5 28.5-28.5 15.8 0 28.5 12.7 28.5 28.5 0 15.8-12.7 28.5-28.5 28.5zm0 0c-15.8 0-28.5-12.7-28.5-28.5 0-15.8 12.7-28.5 28.5-28.5 15.8 0 28.5 12.7 28.5 28.5 0 15.8-12.7 28.5-28.5 28.5z"/>
	<path id="Shape 36" class="s0" d="m2876.8 1399.7l4.3-2.5 121.1 209-4.4 2.5z"/>
	<path id="Shape 37" class="s0" d="m2741.8 1751.1l-2.4-4.4 259.4-141.4 2.4 4.4z"/>
	<path id="Shape 38" class="s0" d="m2744.2 1755.3l5-0.6 36.9 332-5 0.6z"/>
	<path id="Layer 1 copy 24" class="s0" d="m2443.5 2000c-15.8 0-28.5-12.7-28.5-28.5 0-15.8 12.7-28.5 28.5-28.5 15.8 0 28.5 12.7 28.5 28.5 0 15.8-12.7 28.5-28.5 28.5zm0 0c-15.8 0-28.5-12.7-28.5-28.5 0-15.8 12.7-28.5 28.5-28.5 15.8 0 28.5 12.7 28.5 28.5 0 15.8-12.7 28.5-28.5 28.5zm0 0c-15.8 0-28.5-12.7-28.5-28.5 0-15.8 12.7-28.5 28.5-28.5 15.8 0 28.5 12.7 28.5 28.5 0 15.8-12.7 28.5-28.5 28.5zm0 0c-15.8 0-28.5-12.7-28.5-28.5 0-15.8 12.7-28.5 28.5-28.5 15.8 0 28.5 12.7 28.5 28.5 0 15.8-12.7 28.5-28.5 28.5z"/>
	<path id="Shape 28" class="s0" d="m935.6 1206.2l4-2.9 172.2 236.7-4.1 2.9z"/>
	<path id="Shape 29" class="s0" d="m1110.1 1443.9l-0.6-4.9 288.9-33.8 0.6 4.9z"/>
	<path id="Shape 30" class="s0" d="m1815.7 1817.4l-0.9-4.9 488.8-92.2 0.9 4.9z"/>
	<path id="Shape 31" class="s0" d="m1811.1 1817.2l2.2-4.5 292 141.4-2.1 4.5z"/>
	<path id="Shape 32" class="s0" d="m2106.1 1958l-3.8-3.2 199.9-233.7 3.8 3.3z"/>
	<path id="Shape 33" class="s0" d="m2091.8 1961.9l0.3-4.9 356.6 15.3-0.3 5z"/>
	<path id="Shape 34" class="s0" d="m2090 1957.9l3.9-3.1 135.3 169.1-3.9 3.1z"/>
	<path id="Shape 35" class="s0" d="m2447.1 1978.9l2.8 4.1-218.2 147.6-2.8-4.1z"/>
</svg>